<?xml version="1.0" encoding="UTF-8"?><svg id="Camada_1" xmlns="http://www.w3.org/2000/svg" viewBox="0 0 402.67 67.53"><defs><style>.cls-1{letter-spacing:-.05em;}.cls-2{fill:#fff;font-family:Frock-BlackItalic, Frock;font-size:62.12px;font-style:italic;font-weight:800;}.cls-3{fill:#e6332a;}.cls-4{fill:#161f3e;}.cls-5{letter-spacing:0em;}</style></defs><text class="cls-2" transform="translate(0 52.12)"><tspan class="cls-1" x="0" y="0">T</tspan><tspan class="cls-5" x="35.22" y="0" xml:space="preserve">ôCheg    ndo</tspan></text><g><path class="cls-4" d="m20.09,53.61l6.84-32.16h-10.44l1.8-8.52h35.22l-1.8,8.52h-10.44l-6.84,32.16h-14.34Z"/><path class="cls-4" d="m47.27,42.63c0-10.56,7.26-22.74,21.42-22.74,9.6,0,14.22,4.38,14.22,11.82,0,10.5-7.2,22.8-21.42,22.8-9.6,0-14.22-4.44-14.22-11.88Zm10.26-25.74l6.9-8.22h13.44l3.42,8.22h-8.34l-2.64-3.12-3.9,3.12h-8.88Zm11.94,14.52c0-2.28-.84-3.54-2.4-3.54-3.12,0-6.36,10.14-6.36,15.12,0,2.28.84,3.54,2.4,3.54,3.18,0,6.36-10.2,6.36-15.12Z"/><path class="cls-4" d="m85.97,40.35c0-13.02,8.46-28.32,25.38-28.32,12.3,0,15.84,5.52,16.08,14.64l-14.52,1.8c-.24-5.46-1.26-7.86-3.48-7.86-4.2,0-8.94,12.36-8.94,19.62,0,3.66,1.38,5.64,3.6,5.64,2.7,0,5.28-3.6,7.26-9.24l13.5,2.28c-3.3,9.18-11.46,15.6-22.62,15.6s-16.26-5.28-16.26-14.16Z"/><path class="cls-4" d="m127.13,53.61l9.6-45.24h13.56l-4.2,19.62c4.62-5.88,8.46-8.04,13.56-8.04,4.08.12,6.24,2.22,6.24,5.94,0,.84-.12,1.74-.36,2.76l-5.28,24.96h-13.56l4.86-23.16c.12-.48.18-.9.18-1.2,0-.96-.42-1.38-1.14-1.38-2.28,0-4.8,5.28-6.9,11.52l-3,14.22h-13.56Z"/><path class="cls-4" d="m167.81,42.81c0-10.92,7.98-22.92,23.4-22.92,9.42,0,12.54,2.88,12.54,7.68,0,7.32-9.18,12.3-23.04,13.86.06,3.48,1.14,5.1,2.7,5.1,2.1,0,3.72-1.38,6.72-5.04l11.4,2.88c-3.84,6.18-9.48,10.14-20.22,10.14-9.12,0-13.5-4.38-13.5-11.7Zm22.02-13.26c0-1.2-.6-1.68-1.86-1.68-2.34,0-5.28,2.94-6,7.26,4.86-1.02,7.86-3.36,7.86-5.58Z"/><path class="cls-4" d="m200.39,57.93l13.74-2.16c0,2.64.6,3.9,2.16,3.9,2.76,0,4.86-2.52,6.24-9l1.02-4.62c-3.24,4.26-7.44,7.02-11.52,7.02-5.4,0-8.04-2.94-8.04-8.7,0-10.62,7.74-24.42,21.78-24.42,7.26,0,11.46,1.02,16.2,3.24l-6.06,28.44c-2.52,11.94-10.8,15.9-21.12,15.9-7.74,0-14.4-2.16-14.4-9.6Zm25.92-24l1.08-5.04c-.66-.78-1.38-1.02-2.4-1.02-3.12,0-7.44,10.02-7.44,15.42,0,1.62.6,2.34,1.68,2.34,2.4,0,5.88-6.12,7.08-11.7Z"/><path class="cls-4" d="m284.63,53.61l6.96-32.76h13.5l-1.5,7.14c4.62-5.88,8.46-8.04,13.56-8.04,4.08.12,6.24,2.22,6.24,5.94,0,.84-.12,1.74-.36,2.76l-5.28,24.96h-13.56l4.86-23.16c.12-.48.18-.9.18-1.2,0-.96-.42-1.38-1.14-1.38-2.28,0-4.8,5.28-6.9,11.52l-3,14.22h-13.56Z"/><path class="cls-4" d="m325.01,45.57c.06-12.36,7.32-25.68,21.96-25.68,1.14,0,2.16.24,3.24.66l2.52-12.18h13.56l-9.6,45.3h-13.56l1.62-7.68c-3.84,6.12-7.92,8.52-12.06,8.52-5.34,0-7.68-3.42-7.68-8.94Zm22.44-11.16l1.14-5.52c-.66-.72-1.32-1.02-2.34-1.02-3.36,0-7.62,10.98-7.62,16.38,0,1.56.54,2.28,1.56,2.28,2.52,0,5.94-6.12,7.26-12.12Z"/><path class="cls-4" d="m364.61,42.63c0-10.56,7.26-22.74,21.42-22.74,9.6,0,14.22,4.38,14.22,11.82,0,10.5-7.2,22.8-21.42,22.8-9.6,0-14.22-4.44-14.22-11.88Zm22.2-11.22c0-2.28-.84-3.54-2.4-3.54-3.12,0-6.36,10.14-6.36,15.12,0,2.28.84,3.54,2.4,3.54,3.18,0,6.36-10.2,6.36-15.12Z"/></g><polygon class="cls-3" points="263.81 39.72 269.44 56.81 284.9 18.63 246.73 34.1 263.81 39.72"/></svg>